# xmcd
# 
# Track frame offsets:
#     150
#     45509
#     62309
# 
# Disc length: 1009
# 
# Revision: 1
# Processed by: cddbd v1.5.2PL0 Copyright (c) Steve Scherf et al.
# Submitted via: fre:ac v1.0.31
# 
DISCID=1903ef03
DTITLE=Die Inselfeger - Der längste Theken-Mix der Welt
DYEAR=1998
DGENRE=Party
TTITLE0=Der längste Theken-Mix der Welt  (Feten Vers.)
TTITLE1=Der längste Theken-Mix der Welt (Jukebox Edit)
TTITLE2=Inselfeger
EXTD=
EXTT0=
EXTT1=
EXTT2=
PLAYORDER=
